<?xml version="1.0" encoding="utf-8"?>
<svg viewBox="0 0 24 24" xmlns="http://www.w3.org/2000/svg">
  <path d="M 179.004 185.753 Q 179.004 183.531 179.486 182.019 Q 179.968 180.507 180.863 179.58 Q 181.757 178.653 183.014 178.252 Q 184.272 177.851 185.833 177.851 Q 186.884 177.851 187.713 177.96 Q 188.543 178.068 189.139 178.198 Q 189.822 178.35 190.364 178.534 L 190.364 180.496 Q 189.778 180.431 189.106 180.388 Q 188.532 180.344 187.795 180.306 Q 187.058 180.268 186.277 180.268 Q 184.922 180.268 184.033 180.556 Q 183.144 180.843 182.624 181.493 Q 182.104 182.144 181.892 183.19 Q 181.681 184.236 181.681 185.753 Q 181.681 187.304 181.903 188.404 Q 182.125 189.504 182.635 190.209 Q 183.144 190.913 183.979 191.244 Q 184.814 191.574 186.039 191.574 Q 186.57 191.574 187.003 191.542 Q 187.437 191.509 187.741 191.455 Q 188.098 191.401 188.369 191.325 L 188.369 187.347 L 185.551 187.347 L 185.551 184.973 L 190.949 184.973 L 190.949 192.897 Q 190.31 193.2 189.551 193.439 Q 188.9 193.645 188.017 193.807 Q 187.133 193.97 186.104 193.97 Q 184.424 193.97 183.106 193.591 Q 181.789 193.211 180.879 192.268 Q 179.968 191.325 179.486 189.743 Q 179.004 188.16 179.004 185.753 Z" transform="matrix(1.025058, 0, 0, 0.539213, -177.711197, -87.856026)" style="fill: rgb(15, 23, 42); white-space: pre;"/>
</svg>